<svg aria-hidden="true" style="position: absolute; width: 0; height: 0; overflow: hidden;" version="1.1" xmlns="http://www.w3.org/2000/svg" xmlns:xlink="http://www.w3.org/1999/xlink">
<defs>
<symbol id="icon-credit-card" viewBox="0 0 32 32">
<title>credit-card</title>
<path d="M17.061 21.065h8.531c0.32 0 0.533-0.213 0.533-0.533v-4.799c0-0.32-0.213-0.533-0.533-0.533h-8.531c-0.32 0-0.533 0.213-0.533 0.533v4.799c-0 0.32 0.213 0.533 0.533 0.533zM17.595 16.267h7.464v3.732h-7.464v-3.732z"></path>
<path d="M2.666 14.134h4.265c0.32 0 0.533-0.213 0.533-0.533s-0.213-0.533-0.533-0.533h-4.265c-0.32 0-0.533 0.213-0.533 0.533s0.213 0.533 0.533 0.533z"></path>
<path d="M9.064 14.134h4.265c0.32 0 0.533-0.213 0.533-0.533s-0.213-0.533-0.533-0.533h-4.265c-0.32 0-0.533 0.213-0.533 0.533s0.213 0.533 0.533 0.533z"></path>
<path d="M2.666 16.267h6.931c0.32 0 0.533-0.213 0.533-0.533s-0.213-0.533-0.533-0.533h-6.931c-0.32 0-0.533 0.213-0.533 0.533s0.213 0.533 0.533 0.533z"></path>
<path d="M13.329 15.2h-1.599c-0.32 0-0.533 0.213-0.533 0.533s0.213 0.533 0.533 0.533h1.599c0.32 0 0.533-0.213 0.533-0.533s-0.213-0.533-0.533-0.533z"></path>
<path d="M31.51 8.589c-0.373-0.48-0.853-0.746-1.44-0.8l-1.28-0.155v-2.564c0-1.173-0.96-2.133-2.133-2.133h-24.526c-1.173-0-2.133 0.96-2.133 2.133v17.061c0 0.963 0.647 1.782 1.528 2.044-0.027 1.079 0.789 2.015 1.884 2.114l24.632 2.772c0.053 0 0.16 0 0.213 0 1.066 0 2.026-0.8 2.133-1.813l1.599-17.115c0.053-0.533-0.107-1.12-0.48-1.546zM1.066 6.67h26.658v3.199h-26.658v-3.199zM2.133 4.004h24.526c0.587 0 1.066 0.48 1.066 1.066v0.533h-26.658v-0.533c0-0.587 0.48-1.066 1.066-1.066zM1.066 22.131v-11.197h26.658v11.197c0 0.587-0.48 1.066-1.066 1.066h-24.526c-0.587 0-1.066-0.48-1.066-1.066zM30.924 9.922l-1.599 17.115c-0.053 0.587-0.587 1.013-1.173 0.96l-24.579-2.772c-0.533-0.053-0.906-0.48-0.96-0.96h24.046c1.173 0 2.133-0.96 2.133-2.133v-13.489l1.226 0.107c0.267 0 0.533 0.16 0.693 0.373s0.267 0.533 0.213 0.8z"></path>
</symbol>
<symbol id="icon-rich" viewBox="0 0 32 32">
<title>rich</title>
<path d="M8.846 5.348c0.217 0.628 0.802 1.051 1.456 1.051h3.963c0.654 0 1.239-0.422 1.456-1.051 0.207-0.601 0.857-1.944 1.362-2.371 0.442-0.375 0.65-0.956 0.541-1.516-0.107-0.551-0.491-0.986-1.028-1.164-1.601-0.531-3.020-0.352-4.106 0.516-0.195 0.156-0.456 0.156-0.651 0-1.085-0.867-2.504-1.046-4.106-0.515-0.537 0.178-0.922 0.612-1.029 1.164-0.109 0.56 0.099 1.141 0.541 1.516 0.571 0.483 1.446 1.922 1.601 2.37zM7.752 1.666c0.019-0.1 0.086-0.278 0.317-0.354 0.496-0.164 0.958-0.246 1.386-0.246 0.658 0 1.233 0.194 1.718 0.582 0.584 0.468 1.4 0.467 1.983 0 0.801-0.64 1.844-0.753 3.104-0.336 0.23 0.076 0.297 0.255 0.316 0.354 0.036 0.185-0.033 0.371-0.183 0.499-0.815 0.69-1.544 2.441-1.68 2.837-0.068 0.198-0.249 0.332-0.447 0.332h-3.963c-0.199 0-0.379-0.133-0.447-0.332-0.222-0.644-1.212-2.237-1.92-2.837-0.151-0.128-0.22-0.314-0.183-0.499z"></path>
<path d="M16.818 7.466c0-0.294-0.239-0.533-0.533-0.533-0.099 0-0.187 0.035-0.267 0.082-0.079-0.047-0.167-0.082-0.267-0.082h-6.4c-0.294 0-0.533 0.239-0.533 0.533s0.239 0.533 0.533 0.533h6.4v0.533h-5.867c-0.294 0-0.533 0.239-0.533 0.533s0.239 0.533 0.533 0.533h6.36c0.478 0.398 1.067 0.626 1.696 0.626 0.712 0 1.382-0.278 1.886-0.782 0.209-0.209 0.209-0.546 0-0.754s-0.546-0.209-0.754 0c-0.603 0.603-1.647 0.604-2.254 0.007v-1.23z"></path>
<path d="M11.484 13.866c-3.419 0-7.467 4.337-7.467 8 0 0.294 0.239 0.533 0.533 0.533s0.533-0.239 0.533-0.533c0-3.045 3.589-6.934 6.4-6.934 0.294 0 0.533-0.239 0.533-0.533s-0.239-0.533-0.533-0.533z"></path>
<path d="M26.418 17.066c-0.55 0-1.205 0.032-1.865 0.107-0.718-1.315-1.666-2.446-2.861-3.362l-3.841-2.611c-0.635-0.487-1.636-1.068-2.798-1.068h-4.148c-1.026 0-2.035 0.349-2.827 0.972l-3.775 2.751c-3.935 3.093-5.18 8.514-2.961 12.89 0.808 1.592 2.156 3.516 4.001 3.641 0.145 0.010 0.291 0.015 0.438 0.015h10.378c0.783 0.974 1.981 1.6 3.325 1.6 1.546 0 2.898-0.829 3.647-2.064 0.953 0.296 2.122 0.463 3.287 0.463 2.565 0 5.334-0.816 5.334-2.133v-2.933h-0.042c0.026-0.086 0.042-0.175 0.042-0.267v-6.134c0-1.474-3.353-1.867-5.334-1.867zM30.644 18.928c-0.011 0.011-0.020 0.022-0.036 0.035-0.021 0.017-0.046 0.034-0.074 0.052-0.035 0.022-0.078 0.046-0.124 0.069-0.038 0.019-0.077 0.039-0.123 0.059-0.056 0.025-0.122 0.050-0.19 0.076-0.054 0.020-0.109 0.041-0.171 0.061-0.078 0.026-0.167 0.051-0.258 0.076-0.070 0.020-0.14 0.040-0.218 0.059-0.101 0.025-0.215 0.048-0.329 0.071-0.086 0.018-0.167 0.036-0.26 0.052-0.128 0.022-0.271 0.042-0.412 0.061-0.097 0.013-0.187 0.028-0.29 0.040-0.168 0.019-0.353 0.033-0.538 0.046-0.094 0.007-0.179 0.017-0.277 0.022-0.291 0.016-0.599 0.026-0.929 0.026s-0.637-0.010-0.929-0.026c-0.098-0.005-0.183-0.015-0.277-0.022-0.185-0.014-0.37-0.027-0.538-0.046-0.103-0.012-0.193-0.027-0.29-0.040-0.141-0.019-0.284-0.038-0.412-0.061-0.093-0.017-0.174-0.035-0.26-0.052-0.114-0.023-0.228-0.046-0.329-0.071-0.078-0.019-0.147-0.039-0.218-0.059-0.090-0.025-0.179-0.051-0.258-0.076-0.062-0.020-0.117-0.041-0.171-0.061-0.068-0.026-0.134-0.051-0.19-0.076-0.045-0.020-0.085-0.039-0.123-0.059-0.046-0.024-0.089-0.047-0.124-0.069-0.028-0.018-0.053-0.035-0.074-0.052-0.014-0.011-0.022-0.021-0.033-0.032 0.006-0.005 0.011-0.011 0.018-0.017 0.020-0.017 0.048-0.035 0.076-0.053 0.043-0.028 0.097-0.058 0.161-0.090 0.035-0.018 0.069-0.035 0.109-0.052 0.042-0.019 0.091-0.037 0.139-0.057 0.058-0.022 0.121-0.045 0.187-0.067 0.048-0.016 0.094-0.033 0.148-0.049 0.119-0.036 0.25-0.072 0.394-0.107 0.066-0.016 0.143-0.030 0.215-0.045 0.087-0.019 0.176-0.037 0.27-0.054 0.104-0.019 0.214-0.036 0.329-0.053 0.601-0.091 1.321-0.154 2.179-0.154 2.521-0.001 3.93 0.519 4.229 0.795zM22.511 23.316c0.048 0.020 0.098 0.039 0.148 0.059 0.093 0.036 0.188 0.070 0.286 0.104 0.052 0.018 0.102 0.035 0.155 0.051 0.113 0.035 0.228 0.068 0.347 0.099 0.042 0.011 0.082 0.023 0.124 0.034 0.162 0.041 0.327 0.078 0.497 0.111 0.035 0.007 0.072 0.012 0.108 0.019 0.136 0.026 0.274 0.049 0.413 0.070 0.060 0.009 0.12 0.017 0.18 0.025 0.12 0.016 0.241 0.030 0.363 0.043 0.064 0.006 0.128 0.013 0.192 0.019 0.126 0.011 0.252 0.020 0.379 0.027 0.057 0.003 0.113 0.007 0.17 0.010 0.182 0.008 0.364 0.013 0.546 0.013s0.363-0.005 0.546-0.013c0.058-0.003 0.115-0.007 0.173-0.010 0.125-0.007 0.251-0.016 0.375-0.027 0.066-0.006 0.131-0.012 0.196-0.019 0.12-0.012 0.239-0.027 0.357-0.043 0.062-0.008 0.124-0.016 0.185-0.025 0.138-0.020 0.273-0.044 0.407-0.069 0.038-0.007 0.076-0.013 0.114-0.020 0.169-0.034 0.333-0.070 0.494-0.11 0.045-0.011 0.087-0.024 0.132-0.036 0.116-0.031 0.229-0.063 0.339-0.098 0.054-0.017 0.106-0.035 0.158-0.052 0.098-0.033 0.193-0.068 0.285-0.103 0.050-0.019 0.099-0.039 0.147-0.059 0.096-0.041 0.187-0.083 0.275-0.127 0.028-0.014 0.059-0.026 0.086-0.039l0.003 1.88c-0.125 0.303-1.504 0.98-3.678 1.088-0.195 0.007-0.384 0.017-0.595 0.017-1.175 0-2.336-0.18-3.222-0.497-0.003-0.005-0.007-0.011-0.010-0.016-0.063-0.11-0.13-0.217-0.202-0.321-0.011-0.015-0.023-0.030-0.034-0.045-0.067-0.093-0.135-0.185-0.21-0.272-0.022-0.026-0.046-0.050-0.069-0.076-0.066-0.074-0.132-0.147-0.202-0.217-0.036-0.036-0.075-0.068-0.113-0.102-0.062-0.057-0.123-0.113-0.187-0.166-0.006-0.005-0.012-0.011-0.018-0.016 0-0.209 0.001-0.672 0.001-1.255 0.027 0.014 0.060 0.027 0.087 0.041 0.088 0.043 0.178 0.085 0.272 0.125zM15.465 29.333h-9.685c-0.123 0-0.246-0.004-0.367-0.012-1.048-0.071-2.156-1.157-3.121-3.059-1.99-3.923-0.867-8.789 2.653-11.557l3.775-2.751c0.62-0.487 1.395-0.755 2.183-0.755h4.148c0.862 0 1.644 0.461 2.174 0.866l3.841 2.61c0.954 0.732 1.749 1.627 2.371 2.667-0.675 0.139-1.328 0.351-1.777 0.663-0.012 0.009-0.025 0.017-0.037 0.026-0.068 0.049-0.13 0.101-0.186 0.155-0.024 0.023-0.045 0.046-0.067 0.070-0.042 0.046-0.083 0.093-0.116 0.143-0.028 0.041-0.048 0.085-0.069 0.129-0.019 0.039-0.041 0.077-0.054 0.119-0.029 0.090-0.047 0.185-0.047 0.285v4.848c-0.18-0.073-0.366-0.132-0.557-0.18-0.025-0.006-0.050-0.013-0.075-0.019-0.187-0.044-0.377-0.077-0.572-0.095-0.022-0.002-0.044-0.002-0.066-0.003-0.109-0.009-0.219-0.017-0.331-0.017-0.059 0-0.115 0.006-0.173 0.009-0.045 0.002-0.091 0.004-0.136 0.007-0.19 0.014-0.378 0.036-0.56 0.074-0.004 0.001-0.007 0.001-0.011 0.002-0.014 0.003-0.028 0.009-0.042 0.012-0.167 0.037-0.33 0.085-0.489 0.142-0.058 0.020-0.115 0.041-0.172 0.063-0.158 0.063-0.313 0.134-0.462 0.215-0.056 0.030-0.108 0.066-0.163 0.099-0.104 0.063-0.205 0.13-0.303 0.202-0.058 0.042-0.116 0.083-0.171 0.128-0.125 0.101-0.245 0.21-0.358 0.325-0.050 0.050-0.095 0.103-0.142 0.156-0.080 0.090-0.156 0.183-0.228 0.279-0.039 0.052-0.080 0.102-0.117 0.156-0.094 0.137-0.178 0.281-0.255 0.429-0.030 0.058-0.057 0.116-0.085 0.175-0.061 0.131-0.115 0.264-0.163 0.402-0.014 0.040-0.031 0.078-0.043 0.118-0.055 0.175-0.095 0.356-0.127 0.54-0.004 0.023-0.013 0.046-0.017 0.069-0.004 0.029-0.004 0.060-0.008 0.089-0.017 0.125-0.028 0.252-0.034 0.381-0.002 0.046-0.006 0.091-0.007 0.138 0 0.020-0.003 0.039-0.003 0.059 0 0.085 0.008 0.167 0.013 0.251 0.021 0.461 0.096 0.924 0.235 1.349zM19.484 30.933c-1.752 0-3.178-1.416-3.198-3.162 0-0.042 0.001-0.083 0.003-0.124 0.002-0.059 0.004-0.117 0.009-0.175 0.004-0.049 0.010-0.098 0.015-0.146 0.006-0.050 0.014-0.099 0.022-0.147 0.024-0.139 0.055-0.276 0.097-0.409 0.004-0.014 0.011-0.028 0.015-0.042 0.045-0.134 0.099-0.265 0.161-0.391 0.006-0.012 0.012-0.025 0.018-0.036 0.287-0.564 0.741-1.041 1.291-1.355 0.002-0.001 0.004-0.003 0.006-0.004 0.125-0.071 0.256-0.131 0.389-0.184 0.035-0.014 0.070-0.026 0.105-0.038 0.118-0.042 0.239-0.079 0.363-0.106 0.017-0.004 0.033-0.010 0.050-0.013 0.154-0.031 0.309-0.049 0.463-0.058 0.029-0.002 0.059-0.004 0.089-0.004 0.157-0.005 0.314-0.001 0.469 0.018 0.009 0.001 0.018 0.003 0.026 0.004 0.163 0.020 0.325 0.053 0.484 0.099 0.002 0.001 0.005 0.001 0.007 0.002 0.164 0.047 0.324 0.109 0.481 0.183 0.144 0.068 0.284 0.145 0.415 0.233l0.021 0.015c0.019 0.013 0.036 0.027 0.054 0.040 0.089 0.063 0.173 0.131 0.255 0.203 0.020 0.017 0.039 0.035 0.058 0.053 0.082 0.076 0.159 0.155 0.233 0.238 0.007 0.009 0.015 0.016 0.022 0.025 0.17 0.197 0.316 0.415 0.433 0.65 0.027 0.053 0.054 0.107 0.078 0.162 0.041 0.093 0.076 0.188 0.107 0.283 0.002 0.007 0.005 0.014 0.007 0.021 0.031 0.097 0.056 0.195 0.077 0.293 0.002 0.008 0.004 0.015 0.006 0.023 0.020 0.098 0.035 0.197 0.046 0.297 0.001 0.009 0.003 0.017 0.004 0.026 0.011 0.109 0.017 0.218 0.017 0.329 0 0.113-0.006 0.226-0.018 0.338-0.002 0.017-0.005 0.032-0.007 0.049-0.012 0.097-0.026 0.193-0.047 0.287-0.002 0.011-0.006 0.021-0.008 0.031-0.023 0.101-0.050 0.202-0.083 0.301-0.002 0.004-0.003 0.009-0.005 0.013-0.035 0.103-0.076 0.205-0.122 0.306-0.506 1.105-1.619 1.876-2.911 1.876zM26.418 29.333c-1.012 0-2.020-0.135-2.848-0.377 0.001-0.001 0.001-0.002 0.001-0.003 0.052-0.173 0.090-0.351 0.119-0.532 0.007-0.043 0.014-0.086 0.020-0.13 0.024-0.183 0.041-0.369 0.041-0.558 0-0.138-0.007-0.275-0.021-0.411-0.005-0.049-0.013-0.097-0.020-0.145-0.009-0.069-0.015-0.138-0.028-0.206 0.809 0.149 1.749 0.229 2.735 0.229 1.275 0 3.117-0.163 4.269-0.672l0.003 1.7c-0.137 0.33-1.755 1.105-4.272 1.105zM26.418 22.933c-2.508 0-4.123-0.769-4.264-1.064 0.001-0.608 0.001-1.225 0.001-1.739 0.013 0.006 0.029 0.011 0.043 0.017 0.127 0.054 0.261 0.106 0.403 0.153 0.007 0.003 0.015 0.005 0.023 0.007 0.145 0.047 0.298 0.089 0.454 0.128 0.051 0.013 0.104 0.025 0.156 0.036 0.114 0.026 0.229 0.051 0.347 0.074 0.057 0.011 0.114 0.022 0.171 0.032 0.13 0.023 0.26 0.043 0.391 0.062 0.042 0.006 0.083 0.013 0.124 0.019 0.172 0.023 0.345 0.043 0.516 0.060 0.043 0.004 0.085 0.007 0.129 0.011 0.132 0.012 0.262 0.022 0.391 0.031 0.056 0.004 0.11 0.007 0.165 0.010 0.119 0.007 0.236 0.012 0.351 0.017 0.049 0.002 0.097 0.004 0.145 0.005 0.156 0.004 0.309 0.007 0.453 0.007s0.296-0.003 0.452-0.007c0.049-0.002 0.098-0.004 0.147-0.005 0.114-0.004 0.23-0.010 0.349-0.017 0.056-0.003 0.111-0.006 0.167-0.010 0.129-0.009 0.26-0.019 0.391-0.031 0.043-0.004 0.084-0.007 0.127-0.011 0.172-0.017 0.344-0.037 0.516-0.060 0.042-0.006 0.084-0.013 0.126-0.019 0.131-0.019 0.261-0.039 0.39-0.062 0.058-0.010 0.115-0.021 0.172-0.032 0.118-0.023 0.234-0.047 0.348-0.074 0.052-0.012 0.105-0.023 0.156-0.036 0.159-0.040 0.315-0.083 0.463-0.131 0.007-0.003 0.014-0.005 0.021-0.007 0.139-0.046 0.271-0.097 0.396-0.15 0.015-0.006 0.033-0.012 0.047-0.018l0.003 1.7c-0.137 0.331-1.756 1.106-4.273 1.106z"></path>
</symbol>
<symbol id="icon-stopwatch" viewBox="0 0 32 32">
<title>stopwatch</title>
<path d="M17.349 16.295l-6.903-4.994c-0.211-0.152-0.504-0.13-0.69 0.055s-0.209 0.478-0.055 0.69l4.995 6.905c0.327 0.451 0.834 0.734 1.389 0.777 0.050 0.004 0.1 0.005 0.149 0.005 0.502 0 0.986-0.198 1.343-0.557 0.393-0.393 0.594-0.937 0.551-1.492s-0.326-1.061-0.778-1.39zM16.822 18.422c-0.173 0.172-0.413 0.26-0.655 0.242-0.243-0.019-0.466-0.143-0.609-0.34l-3.047-4.212 4.211 3.046c0.198 0.144 0.322 0.366 0.341 0.61 0.019 0.243-0.069 0.482-0.242 0.654z"></path>
<path d="M29.91 13.878c-0.001-0.002 0-0.004-0.001-0.005s-0.002-0.004-0.003-0.006c-0.326-1.215-0.81-2.366-1.424-3.433-0.005-0.011-0.005-0.023-0.012-0.034s-0.017-0.017-0.023-0.027c-0.539-0.925-1.177-1.785-1.902-2.565l1.145-1.145 0.755 0.754 2.262-2.262-2.262-2.263-2.263 2.263 0.754 0.754-1.145 1.145c-0.78-0.724-1.639-1.363-2.565-1.902-0.010-0.007-0.016-0.017-0.027-0.023s-0.023-0.006-0.034-0.012c-1.067-0.615-2.218-1.098-3.433-1.424-0.002-0.001-0.004-0.002-0.006-0.003s-0.004 0-0.005 0c-0.689-0.185-1.397-0.319-2.122-0.399v-0.625h0.8c0.735 0 1.333-0.598 1.333-1.333s-0.598-1.333-1.333-1.333h-4.8c-0.735 0-1.333 0.598-1.333 1.333s0.598 1.333 1.333 1.333h0.8v0.625c-0.725 0.081-1.433 0.215-2.122 0.399-0.002 0.001-0.004 0-0.005 0.001s-0.004 0.002-0.006 0.003c-1.215 0.326-2.366 0.81-3.433 1.424-0.011 0.005-0.023 0.005-0.035 0.012s-0.017 0.017-0.027 0.023c-0.925 0.539-1.785 1.177-2.565 1.902l-1.145-1.146 0.754-0.754-2.263-2.263-2.262 2.263 2.262 2.262 0.755-0.754 1.145 1.145c-0.724 0.78-1.363 1.639-1.901 2.565-0.007 0.010-0.018 0.016-0.023 0.027s-0.006 0.023-0.012 0.034c-0.615 1.067-1.098 2.218-1.424 3.433-0.001 0.002-0.002 0.004-0.003 0.006s0 0.004-0.001 0.005c-0.318 1.188-0.491 2.435-0.491 3.722s0.172 2.533 0.49 3.722c0.001 0.002 0 0.004 0.001 0.005 0.001 0.003 0.003 0.005 0.003 0.007 0.326 1.215 0.809 2.365 1.423 3.431 0.005 0.011 0.005 0.023 0.012 0.034 0.009 0.015 0.022 0.027 0.032 0.042 0.621 1.063 1.372 2.041 2.235 2.909 0.009 0.010 0.012 0.022 0.021 0.032s0.022 0.013 0.032 0.021c0.871 0.867 1.855 1.621 2.924 2.244 0.010 0.007 0.016 0.017 0.027 0.023 0.016 0.009 0.034 0.013 0.050 0.021 1.062 0.61 2.208 1.090 3.417 1.415 0.002 0.001 0.004 0.002 0.006 0.003s0.005 0.001 0.008 0.001c1.187 0.318 2.433 0.49 3.719 0.49s2.532-0.172 3.719-0.49c0.003-0.001 0.005 0 0.008-0.001s0.004-0.002 0.006-0.003c1.209-0.325 2.355-0.805 3.417-1.415 0.017-0.007 0.034-0.011 0.050-0.021 0.011-0.006 0.017-0.017 0.027-0.023 1.069-0.623 2.052-1.377 2.924-2.244 0.010-0.009 0.022-0.012 0.032-0.021s0.013-0.022 0.021-0.032c0.863-0.868 1.614-1.846 2.235-2.909 0.010-0.014 0.023-0.026 0.032-0.042 0.006-0.011 0.006-0.023 0.012-0.034 0.614-1.066 1.097-2.217 1.423-3.431 0.001-0.003 0.003-0.005 0.003-0.007 0.001-0.002 0-0.004 0.001-0.005 0.318-1.188 0.49-2.435 0.49-3.722s-0.172-2.533-0.49-3.722zM28.445 4.401l0.754 0.755-0.754 0.754-0.755-0.754 0.755-0.755zM2.801 5.155l0.754-0.755 0.755 0.755-0.755 0.754-0.754-0.754zM27.71 21.29l1.021 0.274c-0.243 0.778-0.557 1.524-0.932 2.234l-0.91-0.526c-0.255-0.148-0.581-0.061-0.729 0.195s-0.060 0.581 0.195 0.729l0.908 0.524c-0.434 0.684-0.926 1.326-1.473 1.918l-0.741-0.741c-0.209-0.209-0.546-0.209-0.754 0s-0.209 0.546 0 0.754l0.741 0.741c-0.592 0.547-1.234 1.039-1.918 1.473l-0.524-0.908c-0.148-0.256-0.475-0.343-0.729-0.195-0.255 0.147-0.343 0.474-0.195 0.729l0.526 0.91c-0.71 0.374-1.455 0.689-2.234 0.932l-0.274-1.021c-0.076-0.285-0.369-0.454-0.653-0.377-0.284 0.076-0.453 0.369-0.377 0.653l0.273 1.018c-0.777 0.175-1.578 0.283-2.399 0.315v-1.053c0-0.295-0.238-0.533-0.533-0.533s-0.533 0.238-0.533 0.533v1.053c-0.821-0.033-1.622-0.14-2.399-0.315l0.273-1.018c0.076-0.284-0.093-0.577-0.377-0.653s-0.577 0.092-0.653 0.377l-0.274 1.021c-0.778-0.243-1.524-0.557-2.234-0.932l0.526-0.91c0.147-0.255 0.060-0.581-0.195-0.729s-0.581-0.061-0.729 0.195l-0.524 0.908c-0.684-0.434-1.326-0.926-1.918-1.473l0.741-0.741c0.209-0.209 0.209-0.546 0-0.754s-0.546-0.209-0.754 0l-0.741 0.741c-0.547-0.592-1.039-1.234-1.473-1.918l0.908-0.524c0.255-0.147 0.343-0.474 0.195-0.729-0.148-0.256-0.475-0.343-0.729-0.195l-0.91 0.526c-0.374-0.71-0.689-1.455-0.932-2.234l1.021-0.274c0.284-0.076 0.453-0.369 0.377-0.653s-0.368-0.454-0.653-0.377l-1.018 0.273c-0.174-0.777-0.283-1.578-0.315-2.399h1.053c0.295 0 0.533-0.238 0.533-0.533s-0.238-0.533-0.533-0.533h-1.053c0.033-0.821 0.14-1.622 0.315-2.399l1.018 0.273c0.046 0.012 0.093 0.018 0.139 0.018 0.235 0 0.451-0.157 0.515-0.395 0.077-0.284-0.093-0.577-0.377-0.653l-1.021-0.274c0.243-0.778 0.557-1.524 0.932-2.234l0.91 0.526c0.083 0.049 0.175 0.071 0.266 0.071 0.185 0 0.364-0.095 0.462-0.267 0.147-0.255 0.060-0.581-0.195-0.729l-0.908-0.524c0.434-0.684 0.926-1.326 1.473-1.918l0.741 0.741c0.104 0.104 0.241 0.156 0.377 0.156s0.273-0.052 0.377-0.156c0.209-0.209 0.209-0.546 0-0.754l-0.741-0.741c0.592-0.547 1.234-1.039 1.918-1.473l0.524 0.909c0.099 0.171 0.278 0.267 0.462 0.267 0.091 0 0.182-0.023 0.266-0.071 0.255-0.147 0.343-0.474 0.195-0.729l-0.526-0.911c0.71-0.374 1.455-0.689 2.234-0.932l0.274 1.021c0.063 0.238 0.279 0.395 0.515 0.395 0.046 0 0.092-0.006 0.139-0.018 0.284-0.076 0.453-0.369 0.377-0.653l-0.273-1.018c0.625-0.141 1.266-0.237 1.92-0.286 0.165-0.012 0.315-0.021 0.459-0.028 0.007 0 0.013 0 0.020-0.001v1.053c0 0.295 0.238 0.533 0.533 0.533s0.533-0.238 0.533-0.533v-1.053c0.007 0 0.013 0 0.020 0.001 0.145 0.007 0.293 0.016 0.459 0.028 0.654 0.050 1.295 0.146 1.92 0.286l-0.273 1.018c-0.076 0.284 0.093 0.577 0.377 0.653 0.046 0.012 0.093 0.018 0.139 0.018 0.235 0 0.451-0.157 0.515-0.395l0.274-1.021c0.778 0.243 1.524 0.557 2.234 0.932l-0.526 0.911c-0.147 0.255-0.060 0.581 0.195 0.729 0.084 0.049 0.175 0.071 0.266 0.071 0.185 0 0.364-0.096 0.462-0.267l0.524-0.909c0.684 0.434 1.326 0.926 1.918 1.473l-0.741 0.741c-0.209 0.209-0.209 0.546 0 0.754 0.104 0.104 0.241 0.156 0.377 0.156s0.273-0.052 0.377-0.156l0.741-0.741c0.547 0.592 1.039 1.234 1.473 1.918l-0.908 0.524c-0.255 0.147-0.343 0.473-0.195 0.729 0.099 0.171 0.278 0.267 0.462 0.267 0.091 0 0.182-0.023 0.266-0.071l0.91-0.526c0.374 0.71 0.689 1.455 0.932 2.234l-1.021 0.274c-0.284 0.076-0.454 0.369-0.377 0.653 0.064 0.238 0.279 0.395 0.515 0.395 0.046 0 0.092-0.006 0.139-0.018l1.018-0.273c0.175 0.777 0.283 1.578 0.315 2.399h-1.054c-0.295 0-0.533 0.238-0.533 0.533s0.238 0.533 0.533 0.533h1.053c-0.033 0.821-0.14 1.622-0.315 2.399l-1.018-0.273c-0.283-0.077-0.577 0.093-0.653 0.377s0.093 0.577 0.377 0.653zM15.467 3.212v-1.612h-1.867c-0.147 0-0.267-0.12-0.267-0.267s0.12-0.267 0.267-0.267h4.8c0.147 0 0.267 0.12 0.267 0.267s-0.12 0.267-0.267 0.267h-1.867v1.612c-0.187-0.008-0.362-0.012-0.533-0.012s-0.347 0.004-0.533 0.012z"></path>
</symbol>
<symbol id="icon-wallet" viewBox="0 0 32 32">
<title>wallet</title>
<path d="M2.938 6.626c0.268-0.122 0.386-0.438 0.263-0.707s-0.438-0.387-0.707-0.263c-0.37 0.169-0.714 0.39-1.021 0.657-0.222 0.193-0.246 0.53-0.054 0.753 0.106 0.122 0.254 0.184 0.403 0.184 0.124 0 0.249-0.043 0.349-0.13 0.231-0.201 0.489-0.366 0.766-0.493z"></path>
<path d="M4.8 6.338h1.067c0.295 0 0.533-0.238 0.533-0.533s-0.238-0.533-0.533-0.533h-1.067c-0.295 0-0.533 0.238-0.533 0.533s0.238 0.533 0.533 0.533z"></path>
<path d="M8 6.338h1.067c0.295 0 0.533-0.238 0.533-0.533s-0.238-0.533-0.533-0.533h-1.067c-0.295 0-0.533 0.238-0.533 0.533s0.238 0.533 0.533 0.533z"></path>
<path d="M5.867 12.738h-1.067c-0.295 0-0.533 0.238-0.533 0.533s0.238 0.533 0.533 0.533h1.067c0.295 0 0.533-0.238 0.533-0.533s-0.238-0.533-0.533-0.533z"></path>
<path d="M12.267 12.738h-1.067c-0.295 0-0.533 0.238-0.533 0.533s0.238 0.533 0.533 0.533h1.067c0.295 0 0.533-0.238 0.533-0.533s-0.238-0.533-0.533-0.533z"></path>
<path d="M9.067 12.738h-1.067c-0.295 0-0.533 0.238-0.533 0.533s0.238 0.533 0.533 0.533h1.067c0.295 0 0.533-0.238 0.533-0.533s-0.238-0.533-0.533-0.533z"></path>
<path d="M2.938 12.45c-0.277-0.127-0.535-0.293-0.766-0.493-0.222-0.193-0.559-0.169-0.753 0.054-0.193 0.222-0.169 0.559 0.054 0.753 0.308 0.267 0.651 0.487 1.021 0.657 0.072 0.033 0.147 0.049 0.221 0.049 0.203 0 0.396-0.116 0.485-0.311 0.122-0.268 0.005-0.585-0.263-0.707z"></path>
<path d="M15.467 12.738h-1.067c-0.295 0-0.533 0.238-0.533 0.533s0.238 0.533 0.533 0.533h1.067c0.295 0 0.533-0.238 0.533-0.533s-0.238-0.533-0.533-0.533z"></path>
<path d="M25.067 12.738h-1.067c-0.295 0-0.533 0.238-0.533 0.533s0.238 0.533 0.533 0.533h1.067c0.295 0 0.533-0.238 0.533-0.533s-0.238-0.533-0.533-0.533z"></path>
<path d="M28.267 12.738h-1.067c-0.295 0-0.533 0.238-0.533 0.533s0.238 0.533 0.533 0.533h1.067c0.295 0 0.533-0.238 0.533-0.533s-0.238-0.533-0.533-0.533z"></path>
<path d="M18.667 12.738h-1.067c-0.295 0-0.533 0.238-0.533 0.533s0.238 0.533 0.533 0.533h1.067c0.295 0 0.533-0.238 0.533-0.533s-0.238-0.533-0.533-0.533z"></path>
<path d="M21.867 12.738h-1.067c-0.295 0-0.533 0.238-0.533 0.533s0.238 0.533 0.533 0.533h1.067c0.295 0 0.533-0.238 0.533-0.533s-0.238-0.533-0.533-0.533z"></path>
<path d="M2.938 28.45c-0.277-0.127-0.535-0.293-0.766-0.493-0.222-0.193-0.559-0.169-0.753 0.054-0.193 0.222-0.169 0.559 0.054 0.753 0.308 0.267 0.651 0.487 1.021 0.657 0.072 0.033 0.147 0.049 0.221 0.049 0.203 0 0.396-0.116 0.485-0.311 0.122-0.268 0.005-0.585-0.263-0.707z"></path>
<path d="M9.067 28.738h-1.067c-0.295 0-0.533 0.238-0.533 0.533s0.238 0.533 0.533 0.533h1.067c0.295 0 0.533-0.238 0.533-0.533s-0.238-0.533-0.533-0.533z"></path>
<path d="M5.867 28.738h-1.067c-0.295 0-0.533 0.238-0.533 0.533s0.238 0.533 0.533 0.533h1.067c0.295 0 0.533-0.238 0.533-0.533s-0.238-0.533-0.533-0.533z"></path>
<path d="M18.667 28.738h-1.067c-0.295 0-0.533 0.238-0.533 0.533s0.238 0.533 0.533 0.533h1.067c0.295 0 0.533-0.238 0.533-0.533s-0.238-0.533-0.533-0.533z"></path>
<path d="M20.267 29.271c0 0.295 0.238 0.533 0.533 0.533h1.067c0.295 0 0.533-0.238 0.533-0.533s-0.238-0.533-0.533-0.533h-1.067c-0.295 0-0.533 0.238-0.533 0.533z"></path>
<path d="M24 29.805h1.067c0.295 0 0.533-0.238 0.533-0.533s-0.238-0.533-0.533-0.533h-1.067c-0.295 0-0.533 0.238-0.533 0.533s0.238 0.533 0.533 0.533z"></path>
<path d="M15.467 28.738h-1.067c-0.295 0-0.533 0.238-0.533 0.533s0.238 0.533 0.533 0.533h1.067c0.295 0 0.533-0.238 0.533-0.533s-0.238-0.533-0.533-0.533z"></path>
<path d="M27.2 29.805h1.067c0.295 0 0.533-0.238 0.533-0.533s-0.238-0.533-0.533-0.533h-1.067c-0.295 0-0.533 0.238-0.533 0.533s0.238 0.533 0.533 0.533z"></path>
<path d="M12.267 28.738h-1.067c-0.295 0-0.533 0.238-0.533 0.533s0.238 0.533 0.533 0.533h1.067c0.295 0 0.533-0.238 0.533-0.533s-0.238-0.533-0.533-0.533z"></path>
<path d="M23.467 20.738c0 1.177 0.957 2.133 2.133 2.133s2.133-0.957 2.133-2.133-0.957-2.133-2.133-2.133-2.133 0.957-2.133 2.133zM25.6 19.671c0.588 0 1.067 0.478 1.067 1.067s-0.478 1.067-1.067 1.067-1.067-0.478-1.067-1.067 0.478-1.067 1.067-1.067z"></path>
<path d="M22.902 3.138l-2.899-2.899c-0.236-0.236-0.622-0.236-0.858 0l-1.091 1.091-1.091-1.091c-0.236-0.236-0.622-0.236-0.858 0l-2.899 2.899h-8.939c-2.353 0-4.267 1.914-4.267 4.267v20.719c0 2.103 1.711 3.814 3.814 3.814h28.186v-28.8h-9.098zM19.574 1.318l9.286 9.286h-2.875l-6.009-6.010c-0.226-0.219-0.579-0.219-0.81 0.006l-6.003 6.004h-2.875l9.286-9.286zM24.478 10.605h-9.806l4.903-4.903 4.903 4.903zM16.533 1.318l0.766 0.766-8.52 8.52h-1.533l9.286-9.286zM4.267 4.205h7.872l-1.099 1.099c-0.162 0.052-0.285 0.175-0.338 0.338l-4.963 4.963h-1.472c-1.765 0-3.2-1.435-3.2-3.2s1.435-3.2 3.2-3.2zM30.933 23.405h-5.867c-1.47 0-2.667-1.196-2.667-2.667s1.196-2.667 2.667-2.667h5.867v5.333zM30.933 12.738h-0.533c-0.295 0-0.533 0.238-0.533 0.533s0.238 0.533 0.533 0.533h0.533v3.2h-5.867c-2.058 0-3.733 1.675-3.733 3.733s1.675 3.733 3.733 3.733h5.867v4.267h-0.533c-0.295 0-0.533 0.238-0.533 0.533s0.238 0.533 0.533 0.533h0.533v1.067h-27.119c-1.515 0-2.748-1.233-2.748-2.748v-1.175c0.124-0.133 0.184-0.322 0.129-0.509-0.085-0.291-0.129-0.595-0.129-0.901v-14.59c0.124-0.133 0.184-0.322 0.129-0.509-0.010-0.035-0.014-0.070-0.023-0.105 0.048 0.051 0.097 0.1 0.147 0.148 0.046 0.044 0.093 0.086 0.141 0.129 0.060 0.052 0.121 0.103 0.183 0.152 0.050 0.039 0.101 0.077 0.153 0.115 0.065 0.046 0.131 0.090 0.198 0.133 0.054 0.034 0.108 0.067 0.163 0.099 0.070 0.040 0.142 0.077 0.215 0.114 0.056 0.028 0.112 0.057 0.17 0.082 0.076 0.034 0.154 0.063 0.232 0.093 0.058 0.022 0.115 0.044 0.173 0.063 0.084 0.027 0.169 0.049 0.254 0.071 0.057 0.014 0.112 0.031 0.17 0.044 0.097 0.021 0.195 0.035 0.293 0.049 0.049 0.007 0.097 0.017 0.147 0.022 0.149 0.016 0.301 0.025 0.454 0.025h26.668v1.065zM30.369 10.605l-4.267-4.267h0.031c0.295 0 0.533-0.238 0.533-0.533s-0.238-0.533-0.533-0.533h-1.067c-0.009 0-0.017 0.005-0.026 0.005l-1.072-1.072h6.964v6.4h-0.564z"></path>
<path d="M29.333 5.271h-1.067c-0.295 0-0.533 0.238-0.533 0.533s0.238 0.533 0.533 0.533h1.067c0.295 0 0.533-0.238 0.533-0.533s-0.238-0.533-0.533-0.533z"></path>
</symbol>
</defs>
</svg>
