<svg aria-hidden="true" style="position:absolute;width:0;height:0" xmlns="http://www.w3.org/2000/svg" overflow="hidden"><defs><symbol id="icon-credit-card" viewBox="0 0 32 32"><path d="M17.061 21.065h8.531c.32 0 .533-.213.533-.533v-4.799c0-.32-.213-.533-.533-.533h-8.531c-.32 0-.533.213-.533.533v4.799c0 .32.213.533.533.533zm.534-4.798h7.464v3.732h-7.464v-3.732zM2.666 14.134h4.265c.32 0 .533-.213.533-.533s-.213-.533-.533-.533H2.666c-.32 0-.533.213-.533.533s.213.533.533.533zm6.398 0h4.265c.32 0 .533-.213.533-.533s-.213-.533-.533-.533H9.064c-.32 0-.533.213-.533.533s.213.533.533.533zm-6.398 2.133h6.931c.32 0 .533-.213.533-.533s-.213-.533-.533-.533H2.666c-.32 0-.533.213-.533.533s.213.533.533.533zM13.329 15.2H11.73c-.32 0-.533.213-.533.533s.213.533.533.533h1.599c.32 0 .533-.213.533-.533s-.213-.533-.533-.533z"/><path d="M31.51 8.589c-.373-.48-.853-.746-1.44-.8l-1.28-.155V5.07a2.14 2.14 0 0 0-2.133-2.133H2.131A2.14 2.14 0 0 0-.002 5.07v17.061a2.14 2.14 0 0 0 1.528 2.044 2.074 2.074 0 0 0 1.884 2.114l24.632 2.772h.213c1.066 0 2.026-.8 2.133-1.813l1.599-17.115a2.074 2.074 0 0 0-.48-1.546zM1.066 6.67h26.658v3.199H1.066V6.67zm1.067-2.666h24.526c.587 0 1.066.48 1.066 1.066v.533H1.067V5.07c0-.587.48-1.066 1.066-1.066zM1.066 22.131V10.934h26.658v11.197c0 .587-.48 1.066-1.066 1.066H2.132c-.587 0-1.066-.48-1.066-1.066zM30.924 9.922l-1.599 17.115a1.076 1.076 0 0 1-1.173.96L3.573 25.225a1.079 1.079 0 0 1-.96-.96h24.046a2.14 2.14 0 0 0 2.133-2.133V8.643l1.226.107c.267 0 .533.16.693.373s.267.533.213.8z"/></symbol><symbol id="icon-rich" viewBox="0 0 32 32"><path d="M8.846 5.348a1.548 1.548 0 0 0 1.456 1.051h3.963c.654 0 1.239-.422 1.456-1.051.207-.601.857-1.944 1.362-2.371.442-.375.65-.956.541-1.516A1.519 1.519 0 0 0 16.596.297c-1.601-.531-3.02-.352-4.106.516a.511.511 0 0 1-.651 0C10.754-.054 9.335-.233 7.733.298a1.519 1.519 0 0 0-1.029 1.164c-.109.56.099 1.141.541 1.516.571.483 1.446 1.922 1.601 2.37zM7.752 1.666a.451.451 0 0 1 .317-.354 4.432 4.432 0 0 1 1.386-.246c.658 0 1.233.194 1.718.582.584.468 1.4.467 1.983 0 .801-.64 1.844-.753 3.104-.336.23.076.297.255.316.354a.521.521 0 0 1-.183.499c-.815.69-1.544 2.441-1.68 2.837a.481.481 0 0 1-.447.332h-3.963a.479.479 0 0 1-.447-.332c-.222-.644-1.212-2.237-1.92-2.837a.517.517 0 0 1-.183-.499zm9.066 5.8a.533.533 0 0 0-.533-.533.524.524 0 0 0-.267.082.518.518 0 0 0-.267-.082h-6.4a.533.533 0 0 0 0 1.066h6.4v.533H9.884a.533.533 0 0 0 0 1.066h6.36a2.64 2.64 0 0 0 3.582-.156.533.533 0 1 0-.754-.754c-.603.603-1.647.604-2.254.007v-1.23zm-5.334 6.4c-3.419 0-7.467 4.337-7.467 8a.533.533 0 0 0 1.066 0c0-3.045 3.589-6.934 6.4-6.934a.533.533 0 0 0 0-1.066z"/><path d="M26.418 17.066c-.55 0-1.205.032-1.865.107a10.563 10.563 0 0 0-2.861-3.362L17.851 11.2c-.635-.487-1.636-1.068-2.798-1.068h-4.148a4.603 4.603 0 0 0-2.827.972l-3.775 2.751c-3.935 3.093-5.18 8.514-2.961 12.89.808 1.592 2.156 3.516 4.001 3.641.145.01.291.015.438.015h10.378a4.258 4.258 0 0 0 3.325 1.6 4.263 4.263 0 0 0 3.647-2.064c.953.296 2.122.463 3.287.463 2.565 0 5.334-.816 5.334-2.133v-2.933h-.042a.92.92 0 0 0 .042-.267v-6.134c0-1.474-3.353-1.867-5.334-1.867zm4.226 1.862c-.011.011-.02.022-.036.035a1.497 1.497 0 0 1-.198.121c-.038.019-.077.039-.123.059-.056.025-.122.05-.19.076-.054.02-.109.041-.171.061a5.2 5.2 0 0 1-.258.076c-.07.02-.14.04-.218.059a8.034 8.034 0 0 1-.329.071c-.086.018-.167.036-.26.052-.128.022-.271.042-.412.061-.097.013-.187.028-.29.04-.168.019-.353.033-.538.046-.094.007-.179.017-.277.022a16.838 16.838 0 0 1-1.858 0c-.098-.005-.183-.015-.277-.022-.185-.014-.37-.027-.538-.046-.103-.012-.193-.027-.29-.04-.141-.019-.284-.038-.412-.061-.093-.017-.174-.035-.26-.052-.114-.023-.228-.046-.329-.071-.078-.019-.147-.039-.218-.059a7.752 7.752 0 0 1-.258-.076c-.062-.02-.117-.041-.171-.061-.068-.026-.134-.051-.19-.076a2.047 2.047 0 0 1-.247-.128.849.849 0 0 1-.074-.052c-.014-.011-.022-.021-.033-.032l.018-.017c.02-.017.048-.035.076-.053.043-.028.097-.058.161-.09a1.59 1.59 0 0 1 .109-.052c.042-.019.091-.037.139-.057a4.87 4.87 0 0 1 .187-.067c.048-.016.094-.033.148-.049.119-.036.25-.072.394-.107.066-.016.143-.03.215-.045a7.578 7.578 0 0 1 .599-.107 14.52 14.52 0 0 1 2.179-.154c2.521-.001 3.93.519 4.229.795zm-8.133 4.388l.148.059a8.603 8.603 0 0 0 .441.155c.113.035.228.068.347.099l.124.034c.162.041.327.078.497.111l.108.019a10.77 10.77 0 0 0 .956.138l.192.019c.126.011.252.02.379.027l.17.01a12.434 12.434 0 0 0 1.092 0l.173-.01a11.602 11.602 0 0 0 1.113-.114c.138-.02.273-.044.407-.069l.114-.02c.169-.034.333-.07.494-.11.045-.011.087-.024.132-.036.116-.031.229-.063.339-.098l.158-.052a7.808 7.808 0 0 0 .432-.162c.096-.041.187-.083.275-.127.028-.014.059-.026.086-.039l.003 1.88c-.125.303-1.504.98-3.678 1.088-.195.007-.384.017-.595.017-1.175 0-2.336-.18-3.222-.497l-.01-.016a4.436 4.436 0 0 0-.202-.321l-.034-.045a3.938 3.938 0 0 0-.21-.272c-.022-.026-.046-.05-.069-.076a5.184 5.184 0 0 0-.202-.217c-.036-.036-.075-.068-.113-.102a4.826 4.826 0 0 0-.187-.166l-.018-.016.001-1.255c.027.014.06.027.087.041.088.043.178.085.272.125zm-7.046 6.017H5.78c-.123 0-.246-.004-.367-.012-1.048-.071-2.156-1.157-3.121-3.059-1.99-3.923-.867-8.789 2.653-11.557l3.775-2.751a3.549 3.549 0 0 1 2.183-.755h4.148c.862 0 1.644.461 2.174.866l3.841 2.61a9.46 9.46 0 0 1 2.371 2.667c-.675.139-1.328.351-1.777.663l-.037.026c-.068.049-.13.101-.186.155-.024.023-.045.046-.067.07a1.19 1.19 0 0 0-.116.143c-.028.041-.048.085-.069.129-.019.039-.041.077-.054.119a.925.925 0 0 0-.047.285v4.848a4.209 4.209 0 0 0-.557-.18l-.075-.019a4.162 4.162 0 0 0-.572-.095l-.066-.003a4.007 4.007 0 0 0-.331-.017c-.059 0-.115.006-.173.009l-.136.007c-.19.014-.378.036-.56.074l-.011.002-.042.012a5.034 5.034 0 0 0-.661.205 4.306 4.306 0 0 0-.462.215c-.056.03-.108.066-.163.099-.104.063-.205.13-.303.202-.058.042-.116.083-.171.128-.125.101-.245.21-.358.325-.05.05-.095.103-.142.156-.08.09-.156.183-.228.279-.039.052-.08.102-.117.156a4.107 4.107 0 0 0-.255.429c-.03.058-.057.116-.085.175a4.276 4.276 0 0 0-.163.402c-.014.04-.031.078-.043.118a4.2 4.2 0 0 0-.127.54c-.004.023-.013.046-.017.069-.004.029-.004.06-.008.089a4.314 4.314 0 0 0-.034.381c-.002.046-.006.091-.007.138 0 .02-.003.039-.003.059 0 .085.008.167.013.251.021.461.096.924.235 1.349zm4.019 1.6a3.202 3.202 0 0 1-3.186-3.461c.004-.049.01-.098.015-.146a3.239 3.239 0 0 1 .119-.556l.015-.042a3.18 3.18 0 0 1 .161-.391l.018-.036a3.286 3.286 0 0 1 1.291-1.355l.006-.004c.125-.071.256-.131.389-.184.035-.014.07-.026.105-.038.118-.042.239-.079.363-.106.017-.004.033-.01.05-.013a3.329 3.329 0 0 1 .552-.062c.157-.005.314-.001.469.018l.026.004c.163.02.325.053.484.099l.007.002c.164.047.324.109.481.183.144.068.284.145.415.233l.021.015.054.04c.089.063.173.131.255.203l.058.053c.082.076.159.155.233.238l.022.025c.17.197.316.415.433.65a3.019 3.019 0 0 1 .185.445l.007.021c.031.097.056.195.077.293l.006.023c.02.098.035.197.046.297l.004.026a3.265 3.265 0 0 1-.001.667l-.007.049a3.012 3.012 0 0 1-.047.287l-.008.031c-.023.101-.05.202-.083.301l-.005.013a3.205 3.205 0 0 1-3.033 2.182zm6.934-1.6c-1.012 0-2.02-.135-2.848-.377l.001-.003a4.1 4.1 0 0 0 .119-.532l.02-.13a4.011 4.011 0 0 0 .02-.969c-.005-.049-.013-.097-.02-.145-.009-.069-.015-.138-.028-.206a15.38 15.38 0 0 0 2.735.229c1.275 0 3.117-.163 4.269-.672l.003 1.7c-.137.33-1.755 1.105-4.272 1.105zm0-6.4c-2.508 0-4.123-.769-4.264-1.064l.001-1.739.043.017a5.219 5.219 0 0 0 .88.288 11.136 11.136 0 0 0 1.065.204l.124.019c.172.023.345.043.516.06l.129.011a18.624 18.624 0 0 0 .556.041c.119.007.236.012.351.017l.145.005c.156.004.309.007.453.007s.296-.003.452-.007l.147-.005a14.78 14.78 0 0 0 .516-.027c.129-.009.26-.019.391-.031l.127-.011c.172-.017.344-.037.516-.06l.126-.019c.131-.019.261-.039.39-.062l.172-.032c.118-.023.234-.047.348-.074.052-.012.105-.023.156-.036a7.219 7.219 0 0 0 .484-.138c.139-.046.271-.097.396-.15l.047-.018.003 1.7c-.137.331-1.756 1.106-4.273 1.106z"/></symbol><symbol id="icon-stopwatch" viewBox="0 0 32 32"><path d="M17.349 16.295l-6.903-4.994a.532.532 0 1 0-.745.745l4.995 6.905a1.894 1.894 0 0 0 1.538.782 1.9 1.9 0 0 0 1.116-3.439zm-.527 2.127a.833.833 0 0 1-1.264-.098l-3.047-4.212 4.211 3.046a.832.832 0 0 1 .099 1.264z"/><path d="M29.91 13.878l-.001-.005-.003-.006a14.327 14.327 0 0 0-1.424-3.433c-.005-.011-.005-.023-.012-.034s-.017-.017-.023-.027a14.46 14.46 0 0 0-1.902-2.565l1.145-1.145.755.754 2.262-2.262-2.262-2.263-2.263 2.263.754.754-1.145 1.145a14.473 14.473 0 0 0-2.565-1.902c-.01-.007-.016-.017-.027-.023s-.023-.006-.034-.012a14.287 14.287 0 0 0-3.433-1.424l-.006-.003h-.005a14.168 14.168 0 0 0-2.122-.399v-.625h.8c.735 0 1.333-.598 1.333-1.333S19.134 0 18.399 0h-4.8c-.735 0-1.333.598-1.333 1.333s.598 1.333 1.333 1.333h.8v.625c-.725.081-1.433.215-2.122.399l-.005.001-.006.003c-1.215.326-2.366.81-3.433 1.424-.011.005-.023.005-.035.012s-.017.017-.027.023a14.46 14.46 0 0 0-2.565 1.902L5.061 5.909l.754-.754-2.263-2.263L1.29 5.155l2.262 2.262.755-.754 1.145 1.145a14.419 14.419 0 0 0-1.901 2.565c-.007.01-.018.016-.023.027s-.006.023-.012.034a14.287 14.287 0 0 0-1.424 3.433l-.003.006-.001.005a14.374 14.374 0 0 0-.001 7.444l.001.005.003.007a14.293 14.293 0 0 0 1.423 3.431c.005.011.005.023.012.034.009.015.022.027.032.042a14.496 14.496 0 0 0 2.235 2.909c.009.01.012.022.021.032s.022.013.032.021a14.475 14.475 0 0 0 2.924 2.244c.01.007.016.017.027.023.016.009.034.013.05.021 1.062.61 2.208 1.09 3.417 1.415l.006.003a14.35 14.35 0 0 0 7.446.001l.008-.001.006-.003a14.327 14.327 0 0 0 3.417-1.415c.017-.007.034-.011.05-.021.011-.006.017-.017.027-.023a14.503 14.503 0 0 0 2.924-2.244c.01-.009.022-.012.032-.021s.013-.022.021-.032a14.496 14.496 0 0 0 2.235-2.909c.01-.014.023-.026.032-.042.006-.011.006-.023.012-.034a14.31 14.31 0 0 0 1.423-3.431l.003-.007.001-.005a14.373 14.373 0 0 0 0-7.444zm-1.465-9.477l.754.755-.754.754-.755-.754.755-.755zm-25.644.754l.754-.755.755.755-.755.754-.754-.754zM27.71 21.29l1.021.274a13.224 13.224 0 0 1-.932 2.234l-.91-.526a.533.533 0 1 0-.534.924l.908.524a13.411 13.411 0 0 1-1.473 1.918l-.741-.741a.533.533 0 1 0-.754.754l.741.741a13.411 13.411 0 0 1-1.918 1.473l-.524-.908a.533.533 0 1 0-.924.534l.526.91c-.71.374-1.455.689-2.234.932l-.274-1.021a.532.532 0 1 0-1.03.276l.273 1.018c-.777.175-1.578.283-2.399.315v-1.053a.532.532 0 1 0-1.066 0v1.053a13.346 13.346 0 0 1-2.399-.315l.273-1.018a.534.534 0 0 0-1.03-.276l-.274 1.021a13.224 13.224 0 0 1-2.234-.932l.526-.91a.534.534 0 0 0-.924-.534l-.524.908a13.411 13.411 0 0 1-1.918-1.473l.741-.741a.533.533 0 1 0-.754-.754l-.741.741a13.411 13.411 0 0 1-1.473-1.918l.908-.524a.533.533 0 1 0-.534-.924l-.91.526a13.272 13.272 0 0 1-.932-2.234l1.021-.274a.534.534 0 0 0-.276-1.03l-1.018.273a13.346 13.346 0 0 1-.315-2.399h1.053a.532.532 0 1 0 0-1.066H2.679c.033-.821.14-1.622.315-2.399l1.018.273a.534.534 0 0 0 .277-1.03l-1.021-.274c.243-.778.557-1.524.932-2.234l.91.526a.53.53 0 0 0 .728-.196.534.534 0 0 0-.195-.729l-.908-.524c.434-.684.926-1.326 1.473-1.918l.741.741a.532.532 0 1 0 .754-.754l-.741-.741A13.411 13.411 0 0 1 8.88 6.336l.524.909a.534.534 0 1 0 .923-.533l-.526-.911c.71-.374 1.455-.689 2.234-.932l.274 1.021a.533.533 0 1 0 1.031-.276l-.273-1.018a13.202 13.202 0 0 1 2.379-.314l.02-.001v1.053a.532.532 0 1 0 1.066 0V4.281l.02.001a13.481 13.481 0 0 1 2.379.314l-.273 1.018a.534.534 0 0 0 1.031.276l.274-1.021c.778.243 1.524.557 2.234.932l-.526.911a.534.534 0 0 0 .461.8.531.531 0 0 0 .462-.267l.524-.909c.684.434 1.326.926 1.918 1.473l-.741.741a.532.532 0 0 0 .377.91.532.532 0 0 0 .377-.156l.741-.741a13.411 13.411 0 0 1 1.473 1.918l-.908.524a.533.533 0 0 0 .533.925l.91-.526c.374.71.689 1.455.932 2.234l-1.021.274a.533.533 0 1 0 .277 1.03l1.018-.273c.175.777.283 1.578.315 2.399h-1.054a.532.532 0 1 0 0 1.066h1.053c-.033.821-.14 1.622-.315 2.399l-1.018-.273a.533.533 0 0 0-.276 1.03zM15.467 3.212V1.6H13.6a.268.268 0 0 1 0-.534h4.8a.268.268 0 0 1 0 .534h-1.867v1.612a12.4 12.4 0 0 0-1.066 0z"/></symbol><symbol id="icon-wallet" viewBox="0 0 32 32"><path d="M2.938 6.626a.532.532 0 1 0-.444-.97 4.24 4.24 0 0 0-1.021.657.536.536 0 0 0 .349.937.531.531 0 0 0 .349-.13c.231-.201.489-.366.766-.493zM4.8 6.338h1.067a.532.532 0 1 0 0-1.066H4.8a.532.532 0 1 0 0 1.066zm3.2 0h1.067a.532.532 0 1 0 0-1.066H8a.532.532 0 1 0 0 1.066zm-2.133 6.4H4.8a.532.532 0 1 0 0 1.066h1.067a.532.532 0 1 0 0-1.066zm6.4 0H11.2a.532.532 0 1 0 0 1.066h1.067a.532.532 0 1 0 0-1.066zm-3.2 0H8a.532.532 0 1 0 0 1.066h1.067a.532.532 0 1 0 0-1.066zm-6.129-.288a3.222 3.222 0 0 1-.766-.493.534.534 0 0 0-.699.807 4.29 4.29 0 0 0 1.021.657.53.53 0 0 0 .706-.262.534.534 0 0 0-.263-.707zm12.529.288H14.4a.532.532 0 1 0 0 1.066h1.067a.532.532 0 1 0 0-1.066zm9.6 0H24a.532.532 0 1 0 0 1.066h1.067a.532.532 0 1 0 0-1.066zm3.2 0H27.2a.532.532 0 1 0 0 1.066h1.067a.532.532 0 1 0 0-1.066zm-9.6 0H17.6a.532.532 0 1 0 0 1.066h1.067a.532.532 0 1 0 0-1.066zm3.2 0H20.8a.532.532 0 1 0 0 1.066h1.067a.532.532 0 1 0 0-1.066zM2.938 28.45a3.222 3.222 0 0 1-.766-.493.534.534 0 0 0-.699.807 4.29 4.29 0 0 0 1.021.657.53.53 0 0 0 .706-.262.534.534 0 0 0-.263-.707zm6.129.288H8a.532.532 0 1 0 0 1.066h1.067a.532.532 0 1 0 0-1.066zm-3.2 0H4.8a.532.532 0 1 0 0 1.066h1.067a.532.532 0 1 0 0-1.066zm12.8 0H17.6a.532.532 0 1 0 0 1.066h1.067a.532.532 0 1 0 0-1.066zm1.6.533c0 .295.238.533.533.533h1.067a.532.532 0 1 0 0-1.066H20.8a.532.532 0 0 0-.533.533zm3.733.534h1.067a.532.532 0 1 0 0-1.066H24a.532.532 0 1 0 0 1.066zm-8.533-1.067H14.4a.532.532 0 1 0 0 1.066h1.067a.532.532 0 1 0 0-1.066zM27.2 29.805h1.067a.532.532 0 1 0 0-1.066H27.2a.532.532 0 1 0 0 1.066zm-14.933-1.067H11.2a.532.532 0 1 0 0 1.066h1.067a.532.532 0 1 0 0-1.066zm11.2-8c0 1.177.957 2.133 2.133 2.133s2.133-.957 2.133-2.133-.957-2.133-2.133-2.133-2.133.957-2.133 2.133zm2.133-1.067a1.068 1.068 0 0 1 0 2.134 1.067 1.067 0 0 1 0-2.134z"/><path d="M22.902 3.138L20.003.239a.608.608 0 0 0-.858 0L18.054 1.33 16.963.239a.608.608 0 0 0-.858 0l-2.899 2.899H4.267A4.272 4.272 0 0 0 0 7.405v20.719a3.818 3.818 0 0 0 3.814 3.814H32v-28.8h-9.098zm-3.328-1.82l9.286 9.286h-2.875l-6.009-6.01a.576.576 0 0 0-.81.006l-6.003 6.004h-2.875l9.286-9.286zm4.904 9.287h-9.806l4.903-4.903 4.903 4.903zm-7.945-9.287l.766.766-8.52 8.52H7.246l9.286-9.286zM4.267 4.205h7.872L11.04 5.304a.519.519 0 0 0-.338.338l-4.963 4.963H4.267c-1.765 0-3.2-1.435-3.2-3.2s1.435-3.2 3.2-3.2zm26.666 19.2h-5.867c-1.47 0-2.667-1.196-2.667-2.667s1.196-2.667 2.667-2.667h5.867v5.333zm0-10.667H30.4a.532.532 0 1 0 0 1.066h.533v3.2h-5.867c-2.058 0-3.733 1.675-3.733 3.733s1.675 3.733 3.733 3.733h5.867v4.267H30.4a.532.532 0 1 0 0 1.066h.533v1.067H3.814a2.751 2.751 0 0 1-2.748-2.748v-1.175a.527.527 0 0 0 .129-.509 3.217 3.217 0 0 1-.129-.901v-14.59a.527.527 0 0 0 .129-.509c-.01-.035-.014-.07-.023-.105.048.051.097.1.147.148.046.044.093.086.141.129a5.262 5.262 0 0 0 .336.267 5.26 5.26 0 0 0 .361.232c.07.04.142.077.215.114.056.028.112.057.17.082.076.034.154.063.232.093.058.022.115.044.173.063.084.027.169.049.254.071.057.014.112.031.17.044.097.021.195.035.293.049.049.007.097.017.147.022.149.016.301.025.454.025h26.668v1.065zm-.564-2.133l-4.267-4.267h.031a.532.532 0 1 0 0-1.066h-1.067c-.009 0-.017.005-.026.005l-1.072-1.072h6.964v6.4h-.564z"/><path d="M29.333 5.271h-1.067a.532.532 0 1 0 0 1.066h1.067a.532.532 0 1 0 0-1.066z"/></symbol></defs></svg>